<svg width="25" height="24" viewBox="0 0 25 24" fill="none" xmlns="http://www.w3.org/2000/svg">
<path id="Vector" d="M24.7273 3V21C24.7273 21.7957 24.4016 22.5587 23.822 23.1213C23.2423 23.6839 22.4561 24 21.6364 24H3.09091C2.27115 24 1.48496 23.6839 0.905306 23.1213C0.325648 22.5587 0 21.7957 0 21V3C0 2.20435 0.325648 1.44129 0.905306 0.87868C1.48496 0.31607 2.27115 0 3.09091 0H21.6364C22.4561 0 23.2423 0.31607 23.822 0.87868C24.4016 1.44129 24.7273 2.20435 24.7273 3ZM21.6364 3H3.09091V12.57L6.47545 9.285L14.5582 17.13L16.1036 15.63C16.5737 15.2651 17.1653 15.0803 17.7664 15.1108C18.3675 15.1412 18.9362 15.3847 19.3645 15.795L21.6364 18V3ZM13.9091 8.25C13.9091 7.65326 14.1533 7.08097 14.5881 6.65901C15.0228 6.23705 15.6125 6 16.2273 6C16.8421 6 17.4317 6.23705 17.8665 6.65901C18.3012 7.08097 18.5455 7.65326 18.5455 8.25C18.5455 8.84674 18.3012 9.41903 17.8665 9.84099C17.4317 10.2629 16.8421 10.5 16.2273 10.5C15.6125 10.5 15.0228 10.2629 14.5881 9.84099C14.1533 9.41903 13.9091 8.84674 13.9091 8.25Z" fill="#D56E3B"/>
</svg>
