<svg width="121" height="24" viewBox="0 0 121 24" fill="none" xmlns="http://www.w3.org/2000/svg">
<path d="M27.2239 5.76782L22.4383 23.452H16.448L13.6592 11.9789L10.7759 23.452H4.81755L0 5.76782H5.41922L7.92039 18.4123L10.8996 5.76782H16.6356L19.6467 18.3498L22.1174 5.76782H27.2239Z" fill="#190B28"/>
<path d="M29.236 9.79318C29.9224 8.41943 30.8576 7.36294 32.0415 6.62373C33.2285 5.88206 34.6034 5.49629 36.0031 5.51213C37.2499 5.51213 38.343 5.76548 39.2824 6.27218C40.1716 6.73147 40.9211 7.42104 41.4528 8.2689V5.76779H46.8721V23.452H41.4528V20.9509C40.903 21.7951 40.1443 22.4829 39.2504 22.9476C38.3111 23.4552 37.218 23.7086 35.9711 23.7076C34.5799 23.7208 33.2147 23.3298 32.0415 22.5822C30.8576 21.8337 29.9224 20.7684 29.236 19.3863C28.5495 18.0042 28.2063 16.404 28.2063 14.5856C28.2063 12.7635 28.5495 11.166 29.236 9.79318ZM40.3287 11.4092C39.9744 11.04 39.5493 10.7459 39.0788 10.5446C38.6083 10.3433 38.1021 10.2388 37.5904 10.2373C37.0786 10.2359 36.5719 10.3376 36.1003 10.5363C35.6287 10.735 35.202 11.0267 34.8456 11.3939C34.0952 12.1664 33.72 13.2285 33.72 14.58C33.72 15.9315 34.0952 17.0038 34.8456 17.7967C35.1972 18.1705 35.6214 18.4686 36.0923 18.6729C36.5631 18.8772 37.0706 18.9833 37.5838 18.9847C38.0971 18.9861 38.6052 18.8829 39.0771 18.6812C39.5491 18.4796 39.975 18.1838 40.3287 17.812C41.0781 17.0311 41.4528 15.9658 41.4528 14.6161C41.4528 13.2665 41.0781 12.1975 40.3287 11.4092Z" fill="#190B28"/>
<path d="M58.5984 6.41813C59.5596 5.85756 60.6553 5.56934 61.7679 5.58443V11.3133H60.2784C58.9259 11.3133 57.9115 11.6042 57.2353 12.1859C56.559 12.7677 56.2214 13.7867 56.2223 15.2429V17.6356H50.8031V5.76784H56.2223V8.71497C56.8241 7.77436 57.6379 6.98774 58.5984 6.41813Z" fill="#190B28"/>
<path d="M67.4401 22.9129C66.2358 22.3849 65.2849 21.6614 64.5873 20.7425C63.8999 19.8488 63.4923 18.7716 63.416 17.6467H68.7712C68.7985 17.9419 68.889 18.2278 69.0367 18.4848C69.1844 18.7419 69.3858 18.9641 69.6272 19.1362C70.1703 19.528 70.8282 19.7284 71.4975 19.7059C72.1728 19.7059 72.6953 19.5753 73.0663 19.3099C73.2381 19.1989 73.3791 19.0463 73.4762 18.8664C73.5734 18.6864 73.6236 18.4848 73.6221 18.2803C73.6221 17.7731 73.3567 17.398 72.8301 17.1548C72.3035 16.9116 71.4406 16.6435 70.2622 16.3475C69.1853 16.1125 68.1259 15.8037 67.0913 15.4235C66.2449 15.0953 65.4937 14.5614 64.9055 13.87C64.2914 13.1623 63.9847 12.2063 63.9857 11.0021C63.9764 10.0118 64.2697 9.04222 64.8263 8.22309C65.3822 7.38939 66.2062 6.72891 67.2983 6.24166C68.3905 5.75441 69.6846 5.51171 71.1807 5.51356C73.3984 5.51356 75.1465 6.06288 76.4249 7.16151C77.7032 8.26014 78.4374 9.71727 78.6273 11.5329H73.6249C73.5934 11.2485 73.5056 10.9732 73.3668 10.723C73.228 10.4727 73.0408 10.2526 72.8162 10.0753C72.3614 9.71495 71.7643 9.53524 71.0251 9.53617C70.3915 9.53617 69.9056 9.65752 69.5675 9.90022C69.4058 10.0107 69.2746 10.1602 69.186 10.3348C69.0973 10.5094 69.0541 10.7035 69.0603 10.8993C69.0603 11.4069 69.3298 11.7872 69.869 12.0401C70.4081 12.2929 71.2479 12.5463 72.3882 12.8001C73.4728 13.0682 74.54 13.4019 75.5842 13.7992C76.4268 14.1409 77.1722 14.6849 77.7546 15.3832C78.3772 16.1131 78.7014 17.0904 78.7273 18.315C78.7416 19.3109 78.4357 20.2851 77.8547 21.094C77.2739 21.9074 76.4401 22.5461 75.3535 23.0102C74.2669 23.4743 73.0043 23.7058 71.5656 23.7049C70.0195 23.7049 68.6443 23.4409 67.4401 22.9129Z" fill="#190B28"/>
<path d="M97.8016 7.58946C99.0272 8.93172 99.6399 10.7751 99.6399 13.1197V23.452H94.2513V13.8492C94.2513 12.6672 93.9451 11.7482 93.3328 11.0924C92.7205 10.4365 91.8965 10.1091 90.8608 10.11C89.8251 10.11 89.0011 10.4375 88.3888 11.0924C87.7765 11.7473 87.4703 12.6662 87.4703 13.8492V23.452H82.0511V0H87.4703V8.14526C88.0478 7.33959 88.8224 6.69562 89.72 6.27499C90.7179 5.80134 91.8114 5.56362 92.9159 5.58024C94.9475 5.57838 96.576 6.24812 97.8016 7.58946Z" fill="#190B28"/>
<path d="M103.364 9.79323C104.049 8.41948 104.984 7.36299 106.168 6.62378C107.355 5.88226 108.73 5.49649 110.13 5.51218C111.376 5.51218 112.469 5.76553 113.41 6.27224C114.299 6.73231 115.048 7.42171 115.581 8.26895V5.76785H121V23.452H115.581V20.9509C115.031 21.7948 114.272 22.4825 113.378 22.9476C112.438 23.4553 111.345 23.7086 110.098 23.7077C108.706 23.7209 107.341 23.3299 106.168 22.5822C104.984 21.8337 104.049 20.7684 103.364 19.3864C102.678 18.0043 102.335 16.404 102.333 14.5856C102.333 12.7635 102.677 11.1661 103.364 9.79323ZM114.455 11.4092C114.101 11.0398 113.676 10.7455 113.206 10.544C112.736 10.3424 112.23 10.2378 111.718 10.2362C111.206 10.2346 110.699 10.3362 110.228 10.5349C109.756 10.7336 109.33 11.0253 108.973 11.3925C108.223 12.1651 107.848 13.2272 107.848 14.5787C107.848 15.9302 108.223 17.0024 108.973 17.7954C109.325 18.1691 109.749 18.4673 110.22 18.6715C110.691 18.8757 111.198 18.9818 111.711 18.9833C112.224 18.9847 112.732 18.8814 113.204 18.6798C113.676 18.4782 114.102 18.1824 114.455 17.8107C115.206 17.0298 115.581 15.9645 115.581 14.6148C115.581 13.2651 115.206 12.1966 114.455 11.4092Z" fill="#190B28"/>
<path d="M56.2848 19.9769H50.8017V23.7063H56.2848V19.9769Z" fill="url(#paint0_linear_35_75)"/>
<defs>
<linearGradient id="paint0_linear_35_75" x1="50.8017" y1="21.8402" x2="56.2848" y2="21.8402" gradientUnits="userSpaceOnUse">
<stop stop-color="#D5573B"/>
<stop offset="1" stop-color="#D5893B"/>
</linearGradient>
</defs>
</svg>
