<svg width="16" height="15" viewBox="0 0 16 15" fill="none" xmlns="http://www.w3.org/2000/svg">
<g id="paper-plane">
<g id="Group 2655">
<path id="Path 20915" d="M15.489 1.08346L13.6148 13.2433C13.5937 13.3848 13.5404 13.5196 13.459 13.6373C13.3777 13.755 13.2705 13.8526 13.1456 13.9224C13.0207 13.9922 12.8815 14.0325 12.7386 14.0401C12.5957 14.0477 12.453 14.0225 12.3214 13.9664L8.73724 12.4684L7.24719 14.7025C7.19658 14.7931 7.12261 14.8685 7.03298 14.9208C6.94336 14.9731 6.84135 15.0005 6.73758 15C6.576 15 6.42105 14.9358 6.3068 14.8215C6.19255 14.7073 6.12836 14.5523 6.12836 14.3907V11.5745C6.12766 11.3663 6.19638 11.1637 6.32367 10.9989L12.6874 2.81559L4.08602 10.5578L1.08135 9.30816C0.914871 9.23879 0.771854 9.12301 0.669342 8.97461C0.566831 8.82622 0.50915 8.65147 0.503176 8.4712C0.488452 8.29584 0.52514 8.11998 0.608755 7.96514C0.69237 7.81029 0.819288 7.68317 0.97399 7.59932L14.0986 0.123611C14.2516 0.0360861 14.4261 -0.0064823 14.6022 0.000799721C14.7783 0.00808174 14.9488 0.0649185 15.094 0.164775C15.2393 0.264632 15.3534 0.403455 15.4233 0.565284C15.4931 0.727112 15.5159 0.905376 15.489 1.07958V1.08346Z" fill="white"/>
</g>
</g>
</svg>
