<svg width="27" height="27" viewBox="0 0 27 27" fill="none" xmlns="http://www.w3.org/2000/svg">
<path id="Dictation" fill-rule="evenodd" clip-rule="evenodd" d="M27 13.5C27 20.9558 20.9558 27 13.5 27C6.04416 27 0 20.9558 0 13.5C0 6.04416 6.04416 0 13.5 0C20.9558 0 27 6.04416 27 13.5ZM4.3333 13C4.3333 12.4477 4.78102 12 5.3333 12C5.88558 12 6.3333 12.4477 6.3333 13V14.5C6.3333 15.0523 5.88558 15.5 5.3333 15.5C4.78102 15.5 4.3333 15.0523 4.3333 14.5V13ZM8.5 9C7.94772 9 7.5 9.44771 7.5 10V17C7.5 17.5523 7.94772 18 8.5 18C9.05229 18 9.5 17.5523 9.5 17V10C9.5 9.44771 9.05229 9 8.5 9ZM10.6666 7C10.6666 6.44772 11.1143 6 11.6666 6C12.2189 6 12.6666 6.44772 12.6666 7V20C12.6666 20.5523 12.2189 21 11.6666 21C11.1143 21 10.6666 20.5523 10.6666 20V7ZM15 8.75C14.4477 8.75 14 9.19772 14 9.75V17.75C14 18.3023 14.4477 18.75 15 18.75C15.5523 18.75 16 18.3023 16 17.75V9.75C16 9.19771 15.5523 8.75 15 8.75ZM17.33 9C17.33 8.44771 17.7777 8 18.33 8C18.8823 8 19.33 8.44772 19.33 9V18.5C19.33 19.0523 18.8823 19.5 18.33 19.5C17.7777 19.5 17.33 19.0523 17.33 18.5V9ZM21.6666 12C21.1143 12 20.6666 12.4477 20.6666 13V14.5C20.6666 15.0523 21.1143 15.5 21.6666 15.5C22.2189 15.5 22.6666 15.0523 22.6666 14.5V13C22.6666 12.4477 22.2189 12 21.6666 12Z" fill="#D56E3B"/>
</svg>
